<?xml version="1.0" standalone="no"?>
<!DOCTYPE svg PUBLIC "-//W3C//DTD SVG 20010904//EN"
 "http://www.w3.org/TR/2001/REC-SVG-20010904/DTD/svg10.dtd">
<svg version="1.0" xmlns="http://www.w3.org/2000/svg"
 width="512.000000pt" height="512.000000pt" viewBox="0 0 512.000000 512.000000"
 preserveAspectRatio="xMidYMid meet">

<g transform="translate(0.000000,512.000000) scale(0.100000,-0.100000)"
fill="#000000" stroke="none">
<path d="M1975 4229 c-143 -27 -254 -85 -511 -269 -279 -200 -397 -265 -543
-296 -266 -56 -604 78 -751 298 -45 68 -45 70 -13 -82 35 -170 128 -377 232
-517 104 -139 266 -277 402 -343 l47 -23 5 -291 c5 -331 20 -443 83 -638 79
-245 196 -448 373 -646 114 -128 312 -282 457 -355 36 -18 104 -78 220 -195
181 -180 298 -279 475 -398 91 -62 116 -74 138 -69 34 8 192 115 328 223 59
47 181 158 270 248 96 97 179 172 205 185 23 12 81 46 128 77 421 273 708 723
774 1215 8 56 17 224 21 372 l7 270 68 37 c306 167 526 476 611 857 25 116 25
136 -2 91 -94 -154 -300 -280 -523 -319 -224 -40 -404 26 -751 275 -349 249
-437 290 -655 301 -136 6 -259 -12 -390 -58 -47 -17 -92 -30 -100 -31 -8 0
-55 14 -103 31 -154 54 -364 75 -502 50z"/>
</g>
</svg>
